PathFileType	4	(X/Y/Z)	 s10c0403.trc
DataRate	CameraRate	NumFrames	NumMarkers	Units	OrigDataRate	OrigDataStartFrame	OrigNumFrames
200	200	4	49	mm	200	251	2000
Frame#	Time	racr			lacr			c7			jug			rlel			rdr			llel			ldr			s2			lic			ric			lasi			rasi			rpsi			lpsi			rgt			lgt			rth1			rth2			rth3			rth4			rlfc			rmfc			rsh1			rsh2			rsh3			rsh4			rlmal			rmmal			rcal			rtoe			rmt5			lth1			lth2			lth4			lth3			llfc			lmfc			llmal			lcal			lmt5			lsh1			lsh2			lsh3			lsh4			ltoe			SBIKE			LBIKE			RBIKE			
		X1	Y1	Z1	X2	Y2	Z2	X3	Y3	Z3	X4	Y4	Z4	X5	Y5	Z5	X6	Y6	Z6	X7	Y7	Z7	X8	Y8	Z8	X9	Y9	Z9	X10	Y10	Z10	X11	Y11	Z11	X12	Y12	Z12	X13	Y13	Z13	X14	Y14	Z14	X15	Y15	Z15	X16	Y16	Z16	X17	Y17	Z17	X18	Y18	Z18	X19	Y19	Z19	X20	Y20	Z20	X21	Y21	Z21	X22	Y22	Z22	X23	Y23	Z23	X24	Y24	Z24	X25	Y25	Z25	X26	Y26	Z26	X27	Y27	Z27	X28	Y28	Z28	X29	Y29	Z29	X30	Y30	Z30	X31	Y31	Z31	X32	Y32	Z32	X33	Y33	Z33	X34	Y34	Z34	X35	Y35	Z35	X36	Y36	Z36	X37	Y37	Z37	X38	Y38	Z38	X39	Y39	Z39	X40	Y40	Z40	X41	Y41	Z41	X42	Y42	Z42	X43	Y43	Z43	X44	Y44	Z44	X45	Y45	Z45	X46	Y46	Z46	X47	Y47	Z47	X48	Y48	Z48	X49	Y49	Z49	
251	1.2550	587.640721	1351.130128	-7.377879	642.927243	1324.315321	-327.829971	586.635897	1388.333546	-171.100701	584.876186	1243.807743	-161.650612	503.760832	1086.491472	47.520357	621.583105	906.274514	-7.897608	538.003081	1095.432291	-475.491221	649.611224	925.066043	-386.218569	63.072441	1182.085812	-202.982603	227.633898	1180.693394	-361.492399	247.124473	1158.453836	-81.070798	234.399692	1093.163270	-337.318262	239.821949	1077.393158	-89.413211	118.893703	1224.536496	-149.829793	121.447599	1241.697389	-262.113866	129.453375	1062.240093	-24.130233	106.154934	1066.869114	-403.347492	168.881201	919.839010	-2.606328	221.794703	849.530390	-18.408356	231.365149	765.016018	-26.922858	254.875197	865.769514	-25.910053	268.793638	668.728643	-42.974208	260.361068	662.295326	-160.160952	170.574221	606.071701	-15.322833	129.388915	528.241351	-29.113308	56.781562	481.893053	-36.103828	153.837500	509.930606	-52.950229	-14.760114	409.617247	-52.453903	21.218865	405.987219	-130.224417	-57.204591	431.079636	-106.277894	93.198766	240.651362	-94.571036	15.072367	282.359996	-38.236018	185.663236	959.167273	-419.637599	263.363295	921.620560	-408.572125	286.384502	948.788678	-400.339700	312.097609	847.518321	-401.355962	396.230779	768.092170	-383.236681	400.941676	766.425973	-265.448325	224.898731	428.315430	-368.052564	166.657289	390.284712	-326.435678	343.258157	356.934044	-385.410160	328.922658	664.321065	-407.832549	320.502377	578.502178	-390.299672	267.763501	507.234459	-385.277504	347.033846	572.739957	-363.495292	411.830415	397.959858	-331.745919	-203.976792	831.929757	-224.745514	-78.080260	81.855769	-423.758379	-102.534221	80.779170	-24.394122	
252	1.2600	588.730431	1351.147721	-7.569739	643.234304	1325.237814	-328.423621	587.181511	1389.127539	-171.379425	585.479950	1244.439931	-162.199753	504.208181	1086.502920	47.131745	621.488766	906.209789	-8.484902	538.189761	1095.697461	-475.388193	649.615769	924.959574	-386.306668	64.057748	1181.916610	-204.021967	229.157516	1180.443802	-362.184067	247.570434	1159.125643	-81.467568	235.749215	1092.785805	-337.649723	240.564597	1078.058602	-89.775668	119.719613	1224.529984	-150.651400	121.655616	1241.134470	-262.451877	130.423196	1063.049001	-24.621006	107.409008	1065.974366	-403.716305	171.134507	920.893991	-2.967096	224.741182	851.065526	-18.626831	234.980882	766.570970	-26.820839	257.746358	867.373487	-25.788866	273.143681	670.482458	-42.560916	264.112634	664.075422	-160.106907	173.885420	609.207244	-15.262816	131.804471	532.078452	-28.996196	58.456736	486.582045	-36.187504	155.926032	513.388145	-52.905440	-14.068146	415.046059	-52.615307	21.686842	411.238903	-130.515235	-56.261605	436.711247	-106.640069	92.085612	244.992694	-94.672751	14.421184	287.499896	-38.380331	186.114041	957.421328	-419.466158	263.206159	918.868302	-408.126282	286.602770	945.684356	-399.974048	310.954046	844.034811	-400.327098	394.084863	763.667818	-381.844909	398.081413	761.570914	-264.240729	225.530437	422.725845	-368.106463	167.416720	384.859749	-327.057397	344.174781	351.536868	-385.335787	327.151808	659.602762	-407.333236	319.766244	573.314002	-389.457274	267.620079	501.331091	-384.864379	346.303277	567.892843	-362.639137	412.672284	392.636919	-331.661275	-203.953854	831.931547	-224.766931	-78.068513	81.867643	-423.768763	-102.529744	80.787546	-24.386589	
253	1.2650	589.789506	1351.146950	-7.761337	643.511971	1326.144600	-329.035021	587.807649	1389.777300	-171.649112	586.140045	1245.103109	-162.790743	504.659129	1086.573917	46.783289	621.440931	906.080598	-8.850551	538.361491	1095.883555	-475.201207	649.609115	924.843509	-386.406264	64.899192	1181.816677	-204.854099	230.422855	1180.186084	-362.738953	248.034359	1159.587662	-81.834272	237.155678	1092.477485	-338.011708	241.373644	1078.662617	-89.928203	120.498864	1224.579334	-151.703956	122.662801	1241.016132	-263.346233	130.908604	1063.617905	-25.173493	108.598396	1065.108735	-404.052314	173.380260	921.948961	-3.256826	227.710897	852.647836	-18.722905	238.709601	768.182019	-26.513268	260.512138	869.199554	-25.703598	277.554776	672.330964	-42.023833	268.438710	666.214691	-159.264173	177.419573	612.277492	-14.955889	134.302273	535.830044	-28.821611	60.277527	491.368449	-36.172770	158.118387	516.615909	-52.807750	-13.162962	420.608112	-52.660673	22.027822	416.225819	-130.858254	-55.279682	442.836009	-106.607560	91.078995	249.441188	-94.713652	13.876289	292.834568	-38.491669	186.605533	955.622771	-419.292213	263.075712	916.019446	-407.547489	286.802669	942.526314	-399.467833	309.792173	840.636420	-399.260466	391.930800	759.228378	-380.299037	395.036735	756.776884	-263.020506	226.061570	416.930221	-367.911592	168.173460	378.940366	-327.078455	345.050389	346.070851	-385.321347	325.513834	654.631229	-406.469232	318.928914	568.230033	-388.593461	267.586192	495.885203	-384.340863	345.441263	563.054048	-361.664156	413.430258	387.359418	-331.581014	-203.940552	831.923009	-224.763036	-78.057499	81.884821	-423.768095	-102.514605	80.803749	-24.390844	
254	1.2700	590.746265	1351.123471	-7.929166	643.732785	1327.065061	-329.610132	588.364285	1390.477239	-171.902232	586.746077	1245.846319	-163.236254	505.129169	1086.643698	46.405713	621.410556	905.908978	-9.162762	538.456880	1095.966389	-474.985974	649.571230	924.753169	-386.477548	65.762856	1181.588125	-205.757519	231.722757	1179.705954	-363.365813	248.525653	1160.088731	-82.186675	238.639019	1091.999093	-338.509982	242.040399	1079.011361	-90.301891	121.249853	1224.530055	-152.588056	123.616901	1240.558892	-264.339905	131.829216	1064.199674	-25.561929	110.152968	1064.111385	-404.666845	175.659663	923.072683	-3.547285	230.498908	854.195667	-18.459601	242.395869	769.758870	-26.084528	263.168441	871.012390	-25.628250	281.931050	674.197861	-41.450560	272.348152	668.259163	-158.764990	180.671127	615.332931	-14.636107	136.891303	539.405928	-28.504450	62.159479	496.184839	-36.005153	160.361350	519.874855	-52.635485	-12.277924	426.041008	-52.770917	22.239572	421.686657	-131.085334	-54.017605	448.931201	-106.163075	90.326928	253.960608	-94.661335	13.483380	298.009070	-38.540222	187.018244	953.772560	-419.163909	263.001341	913.127779	-407.039489	287.041780	939.479557	-398.963645	308.569431	837.307038	-398.228268	389.681107	754.925227	-378.823200	392.042299	752.176404	-261.925920	226.467493	411.280359	-367.679395	169.251312	372.809635	-326.159667	345.714639	340.643154	-385.233771	323.751663	649.740393	-405.527086	318.002989	563.288076	-387.697438	267.490122	490.262042	-383.778767	344.455322	558.317412	-360.749427	414.111233	382.031909	-331.463023	-203.921759	831.925559	-224.772284	-78.040642	81.878931	-423.760737	-102.526720	80.795449	-24.377643	
